<svg xmlns="http://www.w3.org/2000/svg" viewBox="0 0 149.46 44.49"><defs><style>.cls-1{fill:#33353d;}</style></defs><title>Ресурс 1</title><g id="Слой_2" data-name="Слой 2"><g id="Слой_1-2" data-name="Слой 1"><path class="cls-1" d="M2.46,24.46l3.08-9.73A38.67,38.67,0,0,1,7.71,9.62a3.17,3.17,0,0,0-.62.3,8.39,8.39,0,0,1-2.64.77q-1.11,0-1.11-.83A6.27,6.27,0,0,1,4.18,7.3,9.69,9.69,0,0,1,5.89,4.78a14.08,14.08,0,0,1,6-2.9,35.74,35.74,0,0,1,9-1.12,26.66,26.66,0,0,1,5.46.47A13.8,13.8,0,0,1,30.5,2.72a7.53,7.53,0,0,1,2.65,2.42,5.83,5.83,0,0,1,.93,3.17,9.1,9.1,0,0,1-1,4.37,11.26,11.26,0,0,1-3.21,3.61,14.07,14.07,0,0,1-4.62,2.46,5.31,5.31,0,0,1-.83.17v.13Q33.9,20.2,34,26.8a9.23,9.23,0,0,1-.42,2.75,12.25,12.25,0,0,1-1.27,2.81,12.61,12.61,0,0,1-2,2.52,34.15,34.15,0,0,1-6,4.71,40.53,40.53,0,0,1-7,3.53,18,18,0,0,1-6.08,1.37A16.83,16.83,0,0,1,7,44a9.6,9.6,0,0,1-3.12-1.26,2.17,2.17,0,0,1-1.17-1.7,2.82,2.82,0,0,1,.46-1.57A9.32,9.32,0,0,1,4.87,37.7l-.11-.11a4.1,4.1,0,0,1-1.43.28A3.36,3.36,0,0,1,.93,37,3.06,3.06,0,0,1,0,34.69a22.69,22.69,0,0,1,.73-3.9Q1.46,27.72,2.46,24.46Zm11.73-3.62q-.11.35-.21.78t-.21.81q-1.24,4.29-2.29,7a27.25,27.25,0,0,1-2.22,4.54,12.64,12.64,0,0,1-1.92,2.41q3.27,1,4.66,1.26a13.17,13.17,0,0,0,2.76.28,7.81,7.81,0,0,0,2.81-.49,6.8,6.8,0,0,0,2.29-1.54,12.53,12.53,0,0,0,2.56-3.74,9.92,9.92,0,0,0,1-4.19,5.1,5.1,0,0,0-1.56-3.73,5.43,5.43,0,0,0-1.69-1.15,11.22,11.22,0,0,0-2.58-.65,10.73,10.73,0,0,1-2.1-.55A4.06,4.06,0,0,1,14.19,20.84ZM18.11,7,14.77,18.78a3.83,3.83,0,0,0,.64,0,6,6,0,0,0,3.29-1.35,14.39,14.39,0,0,0,3.64-3.54,6.41,6.41,0,0,0,1.27-3.66q0-3.69-3.91-3.66A3.06,3.06,0,0,0,18.11,7Z"/><path class="cls-1" d="M45.75,30.24a1.87,1.87,0,0,0,2.11,1.6q2,0,5.24-2.41A6.21,6.21,0,0,1,55.63,28a2.84,2.84,0,0,1,1.51.42q.7.43.71.88a2.14,2.14,0,0,1-.77,1.27,28,28,0,0,1-3.27,2.81,28.45,28.45,0,0,1-3.57,2.29,20,20,0,0,1-3.44,1.45,10.68,10.68,0,0,1-3.07.55,7.49,7.49,0,0,1-5.4-1.89,6.76,6.76,0,0,1-2.06-5.12,17.19,17.19,0,0,1,1-5.55,25,25,0,0,1,2.83-5.8,19.41,19.41,0,0,1,5.19-5.29,13.35,13.35,0,0,1,7.31-2.59,5.07,5.07,0,0,1,4,1.57,6.35,6.35,0,0,1,1.48,4.39A10.46,10.46,0,0,1,57,22a16.39,16.39,0,0,1-3.35,4.58A17.88,17.88,0,0,1,50,29.48a6.38,6.38,0,0,1-3.08,1A2.78,2.78,0,0,1,45.75,30.24Zm-.06-.86a8.08,8.08,0,0,0,1.87-1.69,13,13,0,0,0,2.18-4,16.73,16.73,0,0,0,.94-3.32A18.28,18.28,0,0,0,51,16.92q0-1.48-.63-1.48-.86,0-2.61,3.82a33,33,0,0,0-1.68,4.58,14.45,14.45,0,0,0-.63,3.93A8.68,8.68,0,0,0,45.69,29.38Z"/><path class="cls-1" d="M69.31,30.06a1.87,1.87,0,0,0,2.11,1.6q2,0,5.24-2.41a6.21,6.21,0,0,1,2.52-1.39,2.84,2.84,0,0,1,1.51.42q.7.43.71.88a2.14,2.14,0,0,1-.77,1.27,28.13,28.13,0,0,1-3.27,2.81,28.49,28.49,0,0,1-3.57,2.29A20,20,0,0,1,70.36,37a10.68,10.68,0,0,1-3.07.55,7.48,7.48,0,0,1-5.4-1.89,6.76,6.76,0,0,1-2.06-5.12,17.19,17.19,0,0,1,1-5.55,25,25,0,0,1,2.83-5.8,19.41,19.41,0,0,1,5.19-5.29,13.36,13.36,0,0,1,7.31-2.59,5.07,5.07,0,0,1,4,1.57,6.35,6.35,0,0,1,1.48,4.39,10.46,10.46,0,0,1-1.11,4.56,16.39,16.39,0,0,1-3.35,4.58A17.88,17.88,0,0,1,73.6,29.3a6.38,6.38,0,0,1-3.08,1A2.79,2.79,0,0,1,69.31,30.06Zm-.06-.86a8.08,8.08,0,0,0,1.87-1.69,13,13,0,0,0,2.18-4,16.73,16.73,0,0,0,.94-3.32,18.28,18.28,0,0,0,.32-3.42q0-1.48-.63-1.48-.86,0-2.61,3.82a33,33,0,0,0-1.68,4.58A14.43,14.43,0,0,0,69,27.59,8.68,8.68,0,0,0,69.25,29.2Z"/><path class="cls-1" d="M88.48,11.37l.11-.32a38.75,38.75,0,0,1,3-7.08,6.05,6.05,0,0,1,1.71-1.74A7.37,7.37,0,0,1,97.23.88a2.46,2.46,0,0,1,1.65.47,1.75,1.75,0,0,1,.58,1.4,8.65,8.65,0,0,1-.79,2.54,37.14,37.14,0,0,0-2,6,7.09,7.09,0,0,1,.89.15,6.72,6.72,0,0,1,2.14.54,1.2,1.2,0,0,1,.52,1.11,5,5,0,0,1-.71,2.65,4.44,4.44,0,0,1-1.9,1.79,9,9,0,0,1-2.88.56Q94.37,19.12,94,21q-.23,1.62-.5,4.48a13,13,0,0,0-.15,2q0,4.25,4.16,4.22h.24q.48,0,.49.16,0,.43-.91,1.46a12,12,0,0,1-2,1.82,10.91,10.91,0,0,1-2.58,1.31,7.85,7.85,0,0,1-2.53.5A6,6,0,0,1,85.56,35,7.17,7.17,0,0,1,83.75,30a17.54,17.54,0,0,1,.44-3.53q.45-2.19,1.42-5.86.16-.65.34-1.36t.21-.85a2.3,2.3,0,0,1-1.54-.45,1.85,1.85,0,0,1-.47-1.4,4.83,4.83,0,0,1,1.28-3.22A5.54,5.54,0,0,1,88.48,11.37Z"/><path class="cls-1" d="M117,17.06a53.09,53.09,0,0,0,1.76-6.39,25.89,25.89,0,0,0,.69-5.11q0-.48-.27-.48-.43,0-1.49,1.94a27,27,0,0,0-1.78,3.94q-1.53,4.4-2.36,7.31a42.32,42.32,0,0,0-1.14,4.87,24.63,24.63,0,0,0-.29,4,6.22,6.22,0,0,0,.41,2.56,1.3,1.3,0,0,0,1.26.8,5.9,5.9,0,0,0,3.31-1.33,14,14,0,0,0,3.29-3.46q1.15-1.6,1.79-1.6.83,0,.85,1.31a10.14,10.14,0,0,1-1.76,5.65,14.33,14.33,0,0,1-4.61,4.5,11.13,11.13,0,0,1-5.79,1.76,7.86,7.86,0,0,1-8.28-8.21A23.8,23.8,0,0,1,103.77,22a50.15,50.15,0,0,1,3.4-8.19,51.18,51.18,0,0,1,4.7-7.49,24.57,24.57,0,0,1,5.08-5.16A5.7,5.7,0,0,1,120.41,0a4.26,4.26,0,0,1,2.65.88,5.77,5.77,0,0,1,1.85,2.51A9.57,9.57,0,0,1,125.59,7,21.62,21.62,0,0,1,124,15.25a21.13,21.13,0,0,1-4.57,7,15,15,0,0,1-2.68,2.26,4.45,4.45,0,0,1-2.26.83q-.94,0-.95-.72a4,4,0,0,1,.69-1.54,32.26,32.26,0,0,0,2.18-4.49q.1-.3.24-.64T117,17.06Z"/><path class="cls-1" d="M137.13,29.54a1.87,1.87,0,0,0,2.11,1.6q2,0,5.24-2.41A6.2,6.2,0,0,1,147,27.34a2.83,2.83,0,0,1,1.51.42q.7.43.71.88a2.14,2.14,0,0,1-.77,1.27,28.09,28.09,0,0,1-3.27,2.81A28.49,28.49,0,0,1,141.62,35a20,20,0,0,1-3.44,1.45,10.68,10.68,0,0,1-3.07.55,7.49,7.49,0,0,1-5.4-1.89A6.76,6.76,0,0,1,127.65,30a17.19,17.19,0,0,1,1-5.55,24.94,24.94,0,0,1,2.83-5.8,19.39,19.39,0,0,1,5.19-5.29A13.36,13.36,0,0,1,144,10.79a5.07,5.07,0,0,1,4,1.57,6.35,6.35,0,0,1,1.48,4.39,10.46,10.46,0,0,1-1.11,4.56A16.38,16.38,0,0,1,145,25.9a17.88,17.88,0,0,1-3.58,2.88,6.38,6.38,0,0,1-3.08,1A2.8,2.8,0,0,1,137.13,29.54Zm-.06-.86A8.05,8.05,0,0,0,138.95,27a13,13,0,0,0,2.18-4,16.72,16.72,0,0,0,.94-3.32,18.28,18.28,0,0,0,.32-3.42q0-1.48-.63-1.48-.86,0-2.61,3.82a33,33,0,0,0-1.68,4.58,14.43,14.43,0,0,0-.63,3.93A8.68,8.68,0,0,0,137.07,28.68Z"/></g></g></svg>